<svg width="37" height="37" viewBox="0 0 37 37" fill="none" xmlns="http://www.w3.org/2000/svg">
<path d="M8.27632 0C10.4713 0 12.5764 0.871967 14.1286 2.42408C15.6807 3.97619 16.5526 6.0813 16.5526 8.27632V16.5526H8.27632C6.0813 16.5526 3.97619 15.6807 2.42408 14.1286C0.87197 12.5764 3.53727e-06 10.4713 3.53727e-06 8.27632C3.53727e-06 6.0813 0.87197 3.97619 2.42408 2.42408C3.97619 0.871967 6.0813 0 8.27632 0ZM8.27632 20.4474H16.5526V28.7237C16.5526 30.3606 16.0672 31.9607 15.1578 33.3218C14.2484 34.6828 12.9558 35.7436 11.4435 36.37C9.93123 36.9964 8.26714 37.1603 6.66169 36.841C5.05624 36.5216 3.58154 35.7334 2.42408 34.5759C1.26662 33.4185 0.478374 31.9438 0.159031 30.3383C-0.160313 28.7329 0.00358599 27.0688 0.630001 25.5565C1.25642 24.0442 2.31721 22.7516 3.67824 21.8422C5.03928 20.9328 6.63942 20.4474 8.27632 20.4474ZM28.7237 0C30.9187 0 33.0238 0.871967 34.5759 2.42408C36.128 3.97619 37 6.0813 37 8.27632C37 10.4713 36.128 12.5764 34.5759 14.1286C33.0238 15.6807 30.9187 16.5526 28.7237 16.5526H20.4474V8.27632C20.4474 6.0813 21.3193 3.97619 22.8714 2.42408C24.4236 0.871967 26.5287 0 28.7237 0ZM20.4474 20.4474H28.7237C30.3606 20.4474 31.9607 20.9328 33.3218 21.8422C34.6828 22.7516 35.7436 24.0442 36.37 25.5565C36.9964 27.0688 37.1603 28.7329 36.841 30.3383C36.5216 31.9438 35.7334 33.4185 34.5759 34.5759C33.4185 35.7334 31.9438 36.5216 30.3383 36.841C28.7329 37.1603 27.0688 36.9964 25.5565 36.37C24.0442 35.7436 22.7516 34.6828 21.8422 33.3218C20.9328 31.9607 20.4474 30.3606 20.4474 28.7237V20.4474Z" fill="#FA6318"/>
</svg>
